<svg width="26" height="26" viewBox="0 0 26 26" fill="none" xmlns="http://www.w3.org/2000/svg">
<path d="M21 21C23.25 20.7513 25 18.8163 25 16.5C25 14.1634 23.2192 12.2428 20.9407 12.0213C20.4581 8.06469 17.087 5 13 5C9.61143 5 6.71492 7.10678 5.54888 10.0819C2.96461 10.5325 1 12.7868 1 15.5C1 18.5376 3.46243 21 6.5 21C6.66854 21 7 21 7 21H21Z" fill="url(#paint0_linear)"/>
<path d="M20.4444 12.0819L20.493 12.4801L20.8924 12.519C22.9171 12.7158 24.5 14.4233 24.5 16.5C24.5 18.5532 22.9545 20.2671 20.9716 20.5H7H6.99998H6.99997H6.99994H6.99991H6.99986H6.99982H6.99976H6.9997H6.99962H6.99955H6.99946H6.99937H6.99927H6.99916H6.99904H6.99892H6.99879H6.99866H6.99851H6.99836H6.9982H6.99804H6.99787H6.99769H6.9975H6.99731H6.99711H6.9969H6.99669H6.99646H6.99624H6.996H6.99576H6.99551H6.99526H6.99499H6.99472H6.99445H6.99417H6.99388H6.99358H6.99328H6.99297H6.99265H6.99233H6.992H6.99167H6.99133H6.99098H6.99062H6.99026H6.98989H6.98952H6.98914H6.98875H6.98836H6.98796H6.98755H6.98714H6.98672H6.9863H6.98587H6.98543H6.98499H6.98454H6.98408H6.98362H6.98315H6.98268H6.9822H6.98171H6.98122H6.98072H6.98022H6.97971H6.97919H6.97867H6.97814H6.97761H6.97707H6.97653H6.97597H6.97542H6.97486H6.97429H6.97371H6.97314H6.97255H6.97196H6.97136H6.97076H6.97016H6.96954H6.96892H6.9683H6.96767H6.96704H6.9664H6.96575H6.9651H6.96444H6.96378H6.96312H6.96244H6.96177H6.96108H6.9604H6.9597H6.959H6.9583H6.95759H6.95688H6.95616H6.95544H6.95471H6.95397H6.95324H6.95249H6.95174H6.95099H6.95023H6.94947H6.9487H6.94793H6.94715H6.94636H6.94558H6.94478H6.94399H6.94319H6.94238H6.94157H6.94075H6.93993H6.93911H6.93828H6.93744H6.9366H6.93576H6.93491H6.93406H6.9332H6.93234H6.93148H6.93061H6.92973H6.92885H6.92797H6.92708H6.92619H6.9253H6.9244H6.92349H6.92258H6.92167H6.92076H6.91983H6.91891H6.91798H6.91705H6.91611H6.91517H6.91423H6.91328H6.91232H6.91137H6.91041H6.90944H6.90847H6.9075H6.90652H6.90554H6.90456H6.90357H6.90258H6.90159H6.90059H6.89959H6.89858H6.89757H6.89656H6.89554H6.89452H6.8935H6.89247H6.89144H6.89041H6.88937H6.88833H6.88728H6.88624H6.88519H6.88413H6.88307H6.88201H6.88095H6.87988H6.87881H6.87774H6.87666H6.87558H6.8745H6.87341H6.87232H6.87123H6.87013H6.86904H6.86794H6.86683H6.86572H6.86461H6.8635H6.86238H6.86127H6.86014H6.85902H6.85789H6.85676H6.85563H6.85449H6.85335H6.85221H6.85107H6.84992H6.84878H6.84762H6.84647H6.84531H6.84415H6.84299H6.84183H6.84066H6.83949H6.83832H6.83715H6.83597H6.83479H6.83361H6.83243H6.83124H6.83006H6.82887H6.82767H6.82648H6.82528H6.82409H6.82288H6.82168H6.82048H6.81927H6.81806H6.81685H6.81564H6.81442H6.8132H6.81199H6.81076H6.80954H6.80832H6.80709H6.80586H6.80463H6.8034H6.80217H6.80093H6.7997H6.79846H6.79722H6.79597H6.79473H6.79349H6.79224H6.79099H6.78974H6.78849H6.78724H6.78598H6.78473H6.78347H6.78221H6.78095H6.77969H6.77843H6.77716H6.7759H6.77463H6.77336H6.77209H6.77082H6.76955H6.76828H6.76701H6.76573H6.76446H6.76318H6.7619H6.76062H6.75934H6.75806H6.75678H6.7555H6.75421H6.75293H6.75164H6.75036H6.74907H6.74778H6.74649H6.7452H6.74391H6.74262H6.74133H6.74004H6.73874H6.73745H6.73616H6.73486H6.73357H6.73227H6.73097H6.72968H6.72838H6.72708H6.72578H6.72449H6.72319H6.72189H6.72059H6.71929H6.71799H6.71669H6.71539H6.71408H6.71278H6.71148H6.71018H6.70888H6.70758H6.70627H6.70497H6.70367H6.70237H6.70107H6.69976H6.69846H6.69716H6.69586H6.69456H6.69325H6.69195H6.69065H6.68935H6.68805H6.68675H6.68545H6.68415H6.68285H6.68155H6.68025H6.67895H6.67765H6.67635H6.67506H6.67376H6.67246H6.67117H6.66987H6.66858H6.66728H6.66599H6.66469H6.6634H6.66211H6.66082H6.65953H6.65824H6.65695H6.65566H6.65437H6.65309H6.6518H6.65051H6.64923H6.64795H6.64666H6.64538H6.6441H6.64282H6.64154H6.64027H6.63899H6.63771H6.63644H6.63517H6.6339H6.63262H6.63135H6.63009H6.62882H6.62755H6.62629H6.62503H6.62376H6.6225H6.62124H6.61999H6.61873H6.61747H6.61622H6.61497H6.61372H6.61247H6.61122H6.60997H6.60873H6.60749H6.60625H6.60501H6.60377H6.60253H6.6013H6.60006H6.59883H6.5976H6.59638H6.59515H6.59393H6.59271H6.59149H6.59027H6.58905H6.58784H6.58663H6.58541H6.58421H6.583H6.5818H6.58059H6.57939H6.5782H6.577H6.57581H6.57462H6.57343H6.57224H6.57106H6.56988H6.5687H6.56752H6.56634H6.56517H6.564H6.56283H6.56167H6.5605H6.55934H6.55819H6.55703H6.55588H6.55473H6.55358H6.55243H6.55129H6.55015H6.54901H6.54788H6.54675H6.54562H6.54449H6.54337H6.54225H6.54113H6.54002H6.53891H6.5378H6.53669H6.53559H6.53449H6.53339H6.5323H6.53121H6.53012H6.52903H6.52795H6.52687H6.5258H6.52472H6.52366H6.52259H6.52153H6.52047H6.51941H6.51836H6.51731H6.51626H6.51522H6.51418H6.51315H6.51211H6.51108H6.51006H6.50904H6.50802H6.507H6.50599H6.50498H6.50398H6.50298H6.50198H6.50099H6.5C3.73858 20.5 1.5 18.2614 1.5 15.5C1.5 13.034 3.28577 10.984 5.63475 10.5745L5.91178 10.5262L6.0144 10.2644C7.10791 7.47431 9.824 5.5 13 5.5C16.8312 5.5 19.992 8.37303 20.4444 12.0819Z" stroke="black" stroke-opacity="0.5" style="mix-blend-mode:overlay"/>
<defs>
<linearGradient id="paint0_linear" x1="13" y1="5" x2="13" y2="21" gradientUnits="userSpaceOnUse">
<stop offset="0.213542" stop-color="#E8E8E8"/>
<stop offset="1" stop-color="#C4C4C4"/>
</linearGradient>
</defs>
</svg>
