<svg width="87" height="120" viewBox="0 0 87 120" fill="none" xmlns="http://www.w3.org/2000/svg">
<path d="M85.602 57.693C85.602 81.313 66.819 100.467 43.655 100.467C20.492 100.467 1.709 81.314 1.709 57.693C1.709 34.073 20.492 14.919 43.655 14.919C66.819 14.919 85.602 34.072 85.602 57.693Z" fill="#D33833"/>
<path d="M3.40201 68.284C3.40201 68.284 0.365005 23.683 41.605 22.405L38.731 17.628L16.312 25.115L9.92001 32.446L4.32701 43.123L1.12701 55.51L2.08201 63.794" fill="#EF3D3A"/>
<path d="M14.907 28.514C7.23396 36.3488 2.95306 46.8888 2.99 57.855C2.95464 68.8191 7.23542 79.3568 14.907 87.19C18.644 91.0302 23.1125 94.0829 28.0486 96.1678C32.9848 98.2527 38.2886 99.3276 43.647 99.329C49.0058 99.3277 54.3101 98.2528 59.2466 96.1677C64.1831 94.0826 68.6518 91.0297 72.389 87.189C80.06 79.3558 84.3404 68.8186 84.305 57.855C84.3422 46.889 80.0617 36.3489 72.389 28.514C68.6517 24.6738 64.1831 21.6211 59.2468 19.5361C54.3105 17.451 49.0066 16.3758 43.648 16.374C38.2894 16.3758 32.9855 17.451 28.0492 19.5361C23.1129 21.6211 18.6443 24.6738 14.907 28.514V28.514ZM13.042 89.032C4.89705 80.7119 0.349649 69.5232 0.381003 57.88C0.349123 46.2362 4.89657 35.0466 13.042 26.726C17.0215 22.6388 21.779 19.3897 27.0341 17.1704C32.2892 14.9511 37.9355 13.8065 43.64 13.804C49.3443 13.8065 54.9903 14.951 60.2452 17.1701C65.5002 19.3893 70.2576 22.6381 74.237 26.725C82.3841 35.045 86.9325 46.2354 86.9 57.88C86.9343 69.5227 82.3894 80.712 74.246 89.033C70.2664 93.1198 65.509 96.3685 60.2541 98.5878C54.9992 100.807 49.3533 101.952 43.649 101.955C37.9432 101.953 32.2955 100.809 27.0391 98.5895C21.7826 96.3702 17.0237 93.1208 13.043 89.033L13.042 89.032Z" fill="#231F20"/>
<path d="M61.312 57.925L54.919 58.877L46.289 59.83L40.696 59.992L35.258 59.83L31.071 58.568L27.397 54.588L24.547 46.452L23.909 44.702L20.072 43.425L17.866 39.763L16.266 34.506L18.021 29.861L22.177 28.428L25.533 30.023L27.133 33.53L29.052 33.213L29.689 32.439L29.052 28.777L28.889 24.132L29.844 17.76V14.121L32.757 9.47602L37.868 5.81402L46.817 1.99002L56.705 3.44502L65.335 9.63902L69.328 16.01L71.884 20.655L72.521 32.129L70.602 42.008L67.083 50.772L63.728 55.417" fill="#F0D6B7"/>
<path d="M55.874 85.486L33.014 86.439V90.263L34.955 103.649L34 104.764L18.014 99.344L16.895 97.432L15.295 79.432L11.621 68.594L10.844 66.046L23.584 57.29L27.576 55.695L31.07 60L34.108 62.71L37.626 63.825L39.226 64.305L41.146 72.588L42.582 74.338L46.257 73.061L43.702 78L57.606 84.534L55.851 85.486" fill="#335061"/>
<path d="M17.99 29.892L22.146 28.459L25.502 30.054L27.102 33.561L29.021 33.244L29.502 31.332L28.547 27.67L29.517 18.898L28.741 14.121L31.615 10.777L37.829 5.83701L36.074 3.44501L27.265 7.74201L23.591 10.606L21.517 15.066L18.309 19.355L17.353 24.449L17.99 29.869" fill="#6D6B6D"/>
<path d="M24.546 14.919C24.546 14.919 26.946 9.02702 36.532 6.15502C46.118 3.28302 37.014 4.08002 37.014 4.08002L26.628 8.06002L22.636 12.039L20.88 15.229L24.554 14.911L24.546 14.919ZM19.754 28.777C19.754 28.777 16.398 17.628 29.184 16.034L28.702 14.121L19.909 16.196L17.353 24.48L17.99 29.9L19.746 28.785" fill="#DCD9D8"/>
<path d="M24.857 43.587L26.947 41.567C27.55 41.677 28.003 42.18 28.05 42.79C28.213 43.905 28.687 53.938 35.561 59.357C36.191 59.853 30.45 58.583 30.45 58.583L25.339 50.617L24.857 43.587ZM54.274 40.56C54.274 40.56 54.647 35.729 55.952 36.1C56.3195 36.2033 56.6443 36.4213 56.8791 36.7223C57.1139 37.0233 57.2463 37.3915 57.257 37.773C57.257 37.773 54.087 39.817 54.274 40.56ZM67.542 22.877C67.542 22.877 64.908 23.435 64.667 25.742C64.427 28.049 67.542 26.222 68.023 26.059L67.542 22.877ZM48.2 23.04C48.2 23.04 44.68 23.52 44.68 25.75C44.68 27.98 48.673 27.825 49.792 26.865L48.2 23.04ZM26.465 33.391C26.465 33.391 20.391 29.729 19.754 33.228C19.117 36.728 17.672 39.283 20.709 42.945L18.635 42.31L16.716 37.37L16.079 32.594L19.754 28.769L23.909 29.086L26.31 31L26.474 33.392L26.465 33.391ZM29.34 23.357C29.34 23.357 32.058 9.33703 45.8 6.62703C57.117 4.39703 63.06 7.10703 65.297 9.65403C65.297 9.65403 55.198 -2.29197 45.637 1.37003C36.074 5.03203 29.013 11.729 29.177 16.026C29.447 23.35 29.339 23.357 29.339 23.357H29.34ZM66.423 11.249C66.423 11.249 61.763 11.086 61.63 15.229C61.645 15.672 61.754 16.107 61.949 16.506C61.949 16.506 65.623 12.364 67.86 14.594" fill="#F7E4CD"/>
<path d="M46.126 16.94C46.126 16.94 45.349 10.583 39.911 14.276C36.392 16.668 36.719 20.013 37.356 20.648C37.993 21.283 37.822 22.568 38.311 21.685C38.801 20.803 38.637 17.938 40.393 17.141C42.148 16.343 45.053 15.453 46.149 16.931" fill="#F7E4CD"/>
<path d="M31.071 60L16.048 66.689C16.048 66.689 22.263 91.379 19.086 99.027L16.848 98.253L16.685 88.854L12.53 71.048L10.774 66.108L26.434 55.595L31.094 60.055L31.071 60ZM32.625 73.657L34.753 76.25V85.812H32.198C32.198 85.812 31.879 79.122 31.879 78.325C31.879 77.528 32.198 74.663 32.198 74.663L32.625 73.657ZM32.695 87.236L25.502 87.554L27.584 88.986L32.694 89.76" fill="#49728B"/>
<path d="M57.311 85.649L63.223 85.486L64.66 100.142L58.585 100.916L57.303 85.626" fill="#335061"/>
<path d="M58.911 85.649L67.86 85.169C67.86 85.169 71.534 75.933 71.534 75.453C71.534 74.973 74.734 62.075 74.734 62.075L67.542 54.588L66.104 53.311L62.267 57.135V71.954L58.911 85.657" fill="#335061"/>
<path d="M62.92 84.534L57.327 85.649L58.104 90.109C60.178 91.061 63.696 88.514 63.696 88.514L62.92 84.534ZM63.067 56.655L74.253 64.939L74.571 61.115L66.104 53.311L63.067 56.655" fill="#49728B"/>
<path d="M38.241 117.027L34.955 103.649L33.309 93.77L33.037 86.439L48.013 85.665H57.335L56.488 102.395L57.925 115.301L57.762 117.693L45.612 118.645L38.257 117.05" fill="white"/>
<path d="M55.237 85.486C55.237 85.486 54.46 102.054 56.837 113.846C53.1974 115.919 49.1709 117.223 45.007 117.677L58.43 117.197L60.03 116.245L58.111 90.116L57.63 84.542" fill="#DCD9D8"/>
<path d="M64.94 98.872L71.154 97.122L82.984 96.488L84.74 91.068L81.563 81.662L77.888 81.182L72.778 82.777L67.86 85.161L65.258 84.681L63.23 85.455" fill="white"/>
<path d="M64.823 95.683C64.823 95.683 68.979 93.77 69.616 93.933L67.86 85.16L69.934 84.386C69.934 84.386 71.371 92.67 71.371 93.622C71.371 93.622 80.32 94.102 81.12 94.102C82.2614 91.7806 82.7578 89.195 82.557 86.616L84.312 91.71L84.475 94.574L81.92 98.4L79.046 99.035L74.253 98.872L72.653 96.774L67.06 97.548L65.304 98.183" fill="#DCD9D8"/>
<path d="M58.546 84.387L55.028 75.468L51.353 70.212C51.353 70.212 52.13 67.982 53.272 67.982H56.946L60.465 69.259L60.147 75.151L58.547 84.387" fill="white"/>
<path d="M59.23 81.345C59.23 81.345 54.756 72.743 54.756 71.465C54.756 71.465 55.532 69.554 56.674 70.034C57.816 70.514 60.194 71.784 60.194 71.784V68.756L54.756 67.641L51.081 68.121L57.296 82.777L58.577 82.939" fill="#DCD9D8"/>
<path d="M39.686 60.317L35.258 59.837L31.071 58.567V60L33.099 62.23L39.492 65.094" fill="white"/>
<path d="M32.54 60.797C32.54 60.797 37.495 62.872 39.096 62.392L39.251 64.305L34.777 63.352L32.057 61.44L32.54 60.805" fill="#DCD9D8"/>
<path d="M64.916 68.508C62.4476 68.4701 59.9929 68.1323 57.606 67.502C57.754 66.627 57.482 65.768 57.7 65.132C58.298 64.707 59.3 64.707 60.2 64.606C59.3323 64.201 58.3556 64.092 57.42 64.296C57.3535 63.7858 57.1985 63.291 56.962 62.834C58.515 62.292 62.088 58.738 64.108 59.914C65.071 60.472 65.483 63.677 65.561 65.226C65.697 66.3584 65.4712 67.5048 64.916 68.501" fill="#D33833"/>
<path fill-rule="evenodd" clip-rule="evenodd" d="M64.916 68.508C62.4476 68.4701 59.9929 68.1323 57.606 67.502C57.754 66.627 57.482 65.768 57.7 65.132C58.298 64.707 59.3 64.707 60.2 64.606C59.3323 64.201 58.3556 64.092 57.42 64.296C57.3535 63.7858 57.1985 63.291 56.962 62.834C58.515 62.292 62.088 58.738 64.108 59.914C65.071 60.472 65.483 63.677 65.561 65.226C65.6985 66.3607 65.4727 67.5098 64.916 68.508V68.508Z" stroke="#D33833" stroke-width="2"/>
<path d="M51.951 64.088V64.708C51.105 65.265 49.738 65.257 48.844 65.721C50.0188 65.7591 51.1716 66.0496 52.224 66.573C52.224 67.089 52.203 67.605 52.161 68.121C50.608 69.181 49.194 70.761 47.361 71.752C46.498 72.225 43.477 73.432 42.545 73.215C42.025 73.092 41.977 72.441 41.768 71.845C41.325 70.545 40.308 68.477 40.214 66.526C40.098 64.056 39.849 59.923 42.544 60.426C44.7511 60.8975 46.8802 61.6793 48.868 62.748C49.885 63.306 50.476 63.988 52.021 64.111" fill="#D33833"/>
<path fill-rule="evenodd" clip-rule="evenodd" d="M51.951 64.088V64.708C51.105 65.265 49.738 65.257 48.844 65.721C50.0188 65.7591 51.1716 66.0496 52.224 66.573C52.224 67.089 52.203 67.605 52.161 68.121C50.608 69.181 49.194 70.761 47.361 71.752C46.498 72.225 43.477 73.432 42.545 73.215C42.025 73.092 41.977 72.441 41.768 71.845C41.325 70.545 40.308 68.477 40.214 66.526C40.098 64.056 39.849 59.923 42.544 60.426C44.7511 60.8975 46.8802 61.6793 48.868 62.748C49.815 63.283 50.406 63.972 51.951 64.088V64.088Z" stroke="#D33833" stroke-width="2"/>
<path d="M53.49 67.037C53.256 65.69 52.977 65.311 53.086 64.134C56.682 61.742 57.358 68.245 53.489 67.037" fill="#D33833"/>
<path fill-rule="evenodd" clip-rule="evenodd" d="M53.49 67.037C53.256 65.69 52.977 65.311 53.086 64.134C56.706 61.742 57.358 68.237 53.489 67.037H53.49Z" stroke="#D33833" stroke-width="2"/>
<path d="M58.702 68.129C58.702 68.129 57.583 66.534 58.383 66.054C59.183 65.574 59.983 66.054 60.465 65.28C60.947 64.506 60.465 64.003 60.628 63.05C60.791 62.098 61.591 61.935 62.384 61.773C63.176 61.61 65.421 61.293 65.739 62.09L64.784 59.226L62.865 58.591L56.791 62.098L56.472 63.848V67.355L58.702 68.129ZM41.946 73.378C41.7546 70.8917 41.5476 68.4067 41.325 65.923C40.983 62.214 42.218 62.826 45.442 62.826C45.932 62.826 48.472 63.414 48.658 63.778C49.528 65.551 47.198 65.156 49.66 66.495C51.742 67.625 55.408 65.806 54.57 63.298C54.103 62.741 52.122 63.128 51.415 62.756L47.671 60.821C46.118 60 42.413 58.8 40.681 59.946C36.385 62.856 40.952 70.126 42.482 73.161" fill="#EF3D3A"/>
<path d="M46.126 16.94C41.768 15.925 39.601 18.759 38.28 21.693C37.1 21.406 37.573 19.812 37.868 18.999C38.645 16.862 41.752 14.013 44.354 14.4C45.458 14.563 46.957 15.569 46.118 16.947L46.126 16.94ZM67.355 21.886H67.58C68.4636 23.9613 69.5026 25.967 70.688 27.886C69.856 29.814 64.388 31.526 64.473 28.056C65.653 27.538 67.697 27.948 68.746 27.283C68.14 25.626 67.262 24.186 67.402 21.863L67.355 21.886ZM48.355 21.94C49.287 23.644 49.59 25.44 50.918 26.733C51.516 27.313 52.682 28.018 52.099 29.636C51.6906 30.2602 51.1028 30.7462 50.413 31.03C48.339 31.641 43.5 31.154 45.139 28.575C46.856 28.653 49.163 29.69 50.444 28.444C49.458 26.895 47.702 23.799 48.347 21.941L48.355 21.94ZM66.57 39.283C63.463 41.28 59.96 43.463 54.841 42.953C54.2495 42.3853 53.8794 41.6255 53.797 40.8098C53.7145 39.9941 53.9251 39.1756 54.391 38.501C54.942 39.445 54.593 41.195 56.138 41.458C59.043 41.954 62.423 39.685 64.52 38.895C65.817 36.72 64.411 35.915 63.238 34.514C60.846 31.641 57.638 28.08 57.754 23.784C58.717 23.086 58.803 24.852 58.943 25.169C60.193 28.08 63.331 31.804 65.623 34.297C66.183 34.908 67.114 35.497 67.215 35.907C67.51 37.084 66.438 38.501 66.563 39.283H66.57ZM25.37 37.161C24.391 36.604 24.158 34.15 23.04 34.065C21.393 33.964 21.696 37.246 21.703 39.166C20.569 38.145 20.375 34.994 21.206 33.376C20.259 32.911 19.839 33.886 19.311 34.227C19.987 29.342 26.488 31.959 25.409 37.146L25.37 37.161ZM68.56 41.319C67.107 44.075 65.048 47.117 60.791 47.21C60.6668 46.2852 60.6668 45.3479 60.791 44.423C64.054 44.113 66.073 42.457 68.559 41.326L68.56 41.319ZM48.106 43.107C50.833 44.532 55.836 44.655 59.533 44.578C59.702 45.5 59.769 46.437 59.735 47.373C54.981 47.613 49.349 46.436 48.083 43.107H48.106ZM47.594 45.77C49.474 50.485 55.952 49.943 61.404 49.812C61.1532 50.5011 60.6519 51.0703 60 51.406C58.252 52.119 53.428 52.653 50.997 51.406C49.443 50.594 48.465 48.751 47.626 47.667C47.222 47.148 45.186 45.809 47.626 45.809" fill="#231F20"/>
<path d="M66.345 71.76C64.139 75.53 62.019 79.409 59.401 82.73C60.496 79.51 60.954 74.121 61.133 70.01C63.463 68.934 65.398 70.25 66.345 71.76Z" fill="#81B0C4"/>
<path d="M78.238 85.316C75.768 85.812 74.028 88.204 71.612 88.049C72.94 86.183 75.262 85.401 78.238 85.316ZM79.325 89.172C77.1965 89.4856 75.0444 89.6098 72.894 89.543C73.864 88.073 77.554 88.575 79.325 89.172ZM80.009 92.5C77.741 92.547 74.929 92.5 72.769 92.323C74.043 90.96 78.533 91.819 80.009 92.501" fill="#231F20"/>
<path d="M62.08 101.605C62.407 104.439 63.533 107.319 63.393 110.423C62.2412 110.925 60.9995 111.188 59.743 111.197C59.626 108.557 59.269 104.524 59.377 102.007C60.201 102.062 61.42 101.419 62.081 101.597" fill="#DCD9D8"/>
<path d="M58.43 59.799C57.296 60.573 56.325 61.463 55.23 62.253C52.806 62.369 51.485 62.083 49.707 60.705C49.707 60.596 49.917 60.643 49.924 60.503C52.518 61.657 55.812 60.031 58.469 59.799" fill="#F0D6B7"/>
<path d="M44.813 77.42C45.527 74.323 48.316 72.774 50.856 71.055C53.474 74.369 55.066 78.627 56.822 82.73C52.6398 81.3958 48.6133 79.6156 44.812 77.42" fill="#81B0C4"/>
<path d="M59.377 102.015C59.269 104.532 59.627 108.565 59.743 111.205C60.9995 111.196 62.2412 110.933 63.393 110.431C63.533 107.334 62.407 104.454 62.081 101.613C61.421 101.419 60.201 102.07 59.377 102.015ZM33.24 87.701C34.1222 97.0953 36.0155 106.367 38.887 115.355C45.412 117.329 53.281 117.499 59.083 115.719C58.027 110.648 58.485 104.477 57.872 99.066C57.405 95.001 57.646 90.906 57.002 86.764C49.979 85.316 40.099 86.424 33.24 87.701V87.701ZM58.625 86.826C58.563 91.185 58.819 95.481 59.153 99.84C60.831 99.592 61.973 99.422 63.527 99.066C63.022 94.87 63.084 90.139 62.051 86.431C60.8923 86.3708 59.7318 86.5043 58.617 86.826H58.625V86.826ZM67.17 86.121C66.3443 86.0225 65.5097 86.0225 64.684 86.121C65.041 89.675 65.911 93.592 66.238 97.316C67.434 97.316 68.071 96.79 69.058 96.604C69.112 93.329 68.77 88.862 67.193 86.114L67.17 86.121V86.121ZM80.01 97.866C82.503 97.262 84.073 94.212 83.373 91.084C82.907 88.978 82.068 85.022 81.175 83.674C80.515 82.676 78.728 81.352 77.291 82.289C74.961 83.775 70.875 84.201 69.181 85.997C70.028 88.815 70.292 92.687 70.641 96.263C73.547 96.441 77.121 95.489 79.528 96.503C77.843 97.045 75.644 97.053 74.2 97.843C75.388 98.415 78.177 98.299 79.994 97.843L80.01 97.866ZM56.8 82.738C55.044 78.628 53.452 74.369 50.834 71.063C48.317 72.774 45.521 74.323 44.814 77.419C48.6121 79.6175 52.6355 81.401 56.815 82.739H56.8V82.738ZM61.119 70.01C60.955 74.121 60.482 79.51 59.386 82.73C62.004 79.401 64.125 75.53 66.331 71.76C65.406 70.25 63.433 68.903 61.134 70.01H61.118H61.119ZM56.217 68.276C55.223 68.168 54.384 69.414 53.11 68.872C52.815 69.197 52.543 69.554 52.24 69.871C55.09 73.293 56.388 78.155 58.594 82.181C59.774 78.31 59.643 74.075 59.899 69.855C58.259 69.964 57.374 68.392 56.24 68.276H56.217V68.276ZM53.063 64.134C52.954 65.311 53.234 65.683 53.467 67.037C57.359 68.237 56.707 61.742 53.087 64.134H53.063ZM48.799 62.71C46.8116 61.641 44.6828 60.8589 42.476 60.387C39.804 59.877 40.06 64.018 40.146 66.487C40.231 68.439 41.256 70.506 41.699 71.807C41.909 72.41 41.955 73.053 42.476 73.177C43.392 73.394 46.429 72.178 47.292 71.714C49.117 70.723 50.539 69.144 52.092 68.083C52.092 67.566 52.113 67.05 52.154 66.534C51.1018 66.0111 49.9494 65.7209 48.775 65.683C49.708 65.218 51.105 65.226 51.883 64.668V64.049C50.407 63.972 49.816 63.283 48.799 62.709V62.71ZM32.875 59.83C31.492 61.231 36.758 63.135 38.429 63.244C38.429 62.361 38.934 61.525 38.833 60.921C36.836 60.55 34.226 60.781 32.867 59.845L32.875 59.83V59.83ZM49.925 60.488C49.925 60.628 49.739 60.573 49.708 60.689C51.486 62.075 52.815 62.361 55.23 62.237C56.326 61.463 57.289 60.527 58.43 59.783C55.813 60.031 52.512 61.657 49.917 60.503L49.925 60.488V60.488ZM65.569 65.218C65.492 63.67 65.088 60.465 64.117 59.908C62.089 58.73 58.493 62.284 56.97 62.826C57.207 63.283 57.362 63.778 57.429 64.289C58.3646 64.085 59.3413 64.194 60.209 64.599C59.309 64.699 58.307 64.692 57.709 65.125C57.491 65.76 57.763 66.619 57.615 67.495C60.002 68.125 62.456 68.462 64.925 68.501C65.475 67.505 65.698 66.362 65.562 65.234L65.569 65.218V65.218ZM30.544 61.161C30.109 60.851 27.173 57.043 26.769 57.197C21.449 59.287 16.477 62.903 12.01 66.325C16.251 75.391 17.96 86.455 18.224 97.192C23.079 99.452 27.344 102.72 33.931 103.061C33.154 97.688 32.471 92.888 32.043 87.825C30.389 87.128 28.012 87.825 26.466 87.608C26.466 85.75 28.796 86.795 29.029 85.541C29.177 84.596 27.724 84.526 28.199 83.032C29.41 83.474 30.047 84.442 31.305 84.805C32.486 82.235 31.305 77.683 31.461 75.515C31.461 75.112 31.663 73.277 32.571 73.603C33.481 73.928 32.525 78.48 32.611 80.516C32.688 82.39 32.385 84.209 33.146 85.386C39.686 84.493 46.27 83.956 52.869 83.776C51.0594 83.0938 49.2928 82.3023 47.579 81.406C46.507 80.803 43.136 79.556 42.825 78.542C42.335 76.932 44.115 76.072 44.425 74.671C41.209 76.421 40.588 72.999 39.827 70.575C39.2702 68.9121 38.8521 67.2059 38.577 65.474C35.7583 64.2558 33.0456 62.8055 30.467 61.138L30.544 61.161V61.161ZM62.758 57.661C67.193 55.517 67.985 65.667 66.253 68.934C66.525 69.91 67.442 70.281 67.807 71.156C65.337 75.569 62.587 79.672 60.039 84.054C61.919 82.893 64.599 83.845 66.805 82.97C67.581 82.653 68.195 80.81 68.809 79.34C70.5958 75.1251 72.0121 70.7626 73.042 66.302C73.358 65.131 73.542 63.929 73.594 62.717C73.399 61.317 71.489 60.271 70.487 59.404C68.692 57.801 67.566 56.384 65.694 54.883C64.917 55.997 63.309 56.748 62.688 57.654L62.758 57.662V57.661ZM20.408 18.488C18.294 20.81 18.738 25.146 18.993 28.228C22.807 25.835 27.88 28.413 27.833 32.485C29.659 32.439 28.517 30.217 28.183 28.785C27.103 24.139 30 19.037 28.315 14.764C25.2954 14.9244 22.4578 16.2578 20.407 18.48V18.488H20.408ZM35.516 5.04801C30.738 6.39501 24.641 9.86301 22.644 14.145C24.198 13.928 25.224 13.161 26.722 13.068C27.373 13.158 28.032 13.184 28.688 13.146C29.985 12.828 31.08 9.92601 32.067 8.84101C33.053 7.75701 34.172 7.33901 34.957 6.37101C35.461 6.13101 36.207 6.14701 36.238 5.38801C36.005 5.18801 35.78 5.00901 35.516 5.07801V5.04801V5.04801ZM60.373 6.31801C55.409 3.53001 47.013 1.42501 41.73 4.04901C37.473 6.16301 31.71 9.66901 29.752 14.114C31.585 18.394 29.208 22.32 29.061 26.671C28.983 28.994 30.156 31.006 30.241 33.523C29.612 34.553 27.693 34.683 26.357 34.614C25.907 32.384 25.13 29.884 22.823 29.628C22.1007 29.5678 21.3736 29.6547 20.6859 29.8837C19.9982 30.1126 19.3641 30.4788 18.822 30.96C18.281 31.4401 17.8436 32.0256 17.5365 32.6805C17.2294 33.3354 17.0591 34.046 17.036 34.769C16.857 38.067 19.584 43.541 23.436 43.161C24.928 43.014 25.293 41.528 26.916 41.543C27.794 43.293 25.557 43.866 25.363 45.089C25.392 45.824 25.501 46.553 25.689 47.265C26.4756 50.4007 27.7693 53.3867 29.519 56.105C31.469 58.893 35.299 59.311 39.423 59.582C40.161 58.034 42.872 58.134 44.635 58.545C42.515 57.708 40.549 55.68 38.918 53.899C37.046 51.84 35.143 49.634 35.034 46.932C38.576 51.825 41.504 56.106 47.944 58.258C52.814 59.884 58.509 57.484 62.253 54.89C63.806 53.799 64.731 52.072 65.841 50.493C69.974 44.57 71.901 36.116 71.481 27.917C71.31 24.534 71.318 21.167 70.176 18.898C69.034 16.63 64.964 14.392 62.61 16.575C62.175 14.253 64.567 12.836 67.38 13.665C65.375 11.086 63.27 7.99001 60.388 6.37901L60.373 6.31701V6.31801ZM69.617 82.575C73.5 80.655 80.74 77.404 83.171 82.575C84.1782 84.8709 84.9865 87.2489 85.587 89.683C86.247 92.462 84.873 98.307 82.007 99.236C79.2186 100.014 76.2781 100.07 73.462 99.399C73.0342 99.0156 72.6813 98.5561 72.421 98.044C70.389 97.8611 68.3442 98.2077 66.486 99.05C66.649 100.653 65.562 100.916 64.536 101.241C63.76 104.23 66.09 108.139 65.507 110.872C65.119 112.815 62.719 113.117 60.955 113.482C60.925 114.45 60.991 115.42 61.15 116.377C60.746 117.855 58.936 118.699 57.227 118.908C51.587 119.582 43.027 119.884 37.605 117.941C36.09 114.24 34.902 109.741 33.635 105.554C28.345 106.119 24.065 103.277 20.035 101.419C18.636 100.777 16.71 100.421 16.15 99.314C15.591 98.206 15.855 96.217 15.723 94.243C15.405 89.28 15.133 84.503 13.82 79.425C13.23 77.148 12.204 75.135 11.49 72.937C10.83 70.901 9.67201 68.385 9.36901 66.357C8.91901 63.352 11.762 63.182 13.579 61.881C16.391 59.868 18.589 58.785 21.634 56.934C22.536 56.392 25.254 55.03 25.565 54.403C26.179 53.156 24.509 51.399 24.065 50.423C23.3987 49.0532 23.0008 47.5685 22.893 46.049C21.7533 45.8622 20.6638 45.4444 19.6914 44.8214C18.719 44.1984 17.8841 43.3833 17.238 42.426C15.304 39.6 13.968 34.374 15.638 30.403C15.77 30.093 16.414 29.473 16.523 28.993C16.717 28.049 16.166 26.787 16.135 25.781C15.956 20.617 17.013 16.165 20.5 14.609C21.914 8.98901 26.987 7.11501 31.764 4.32001C33.6166 3.33244 35.5532 2.51121 37.551 1.86601C44.844 -0.812987 56.03 -0.301987 62.08 4.25801C64.644 6.19401 68.746 10.274 70.214 13.231C74.098 21.035 73.81 34.088 71.107 43.587C70.6895 45.1768 70.144 46.7302 69.476 48.232C68.963 49.301 67.363 51.445 67.557 52.39C67.751 53.334 71.2 55.974 71.946 56.686C73.274 57.964 75.83 59.667 76.008 61.277C76.188 62.887 75.232 65.35 74.75 67.007C73.088 72.542 71.472 77.652 69.592 82.583L69.616 82.575H69.617Z" fill="#231F20"/>
<path d="M43.78 44.315C43.99 44.036 45.147 43.61 46.763 44.392C46.763 44.392 44.843 44.71 45.007 47.899L44.23 47.737C44.23 47.737 43.407 44.849 43.803 44.315" fill="#F7E4CD"/>
<path d="M57.793 71.706C57.7929 71.8211 57.7701 71.9351 57.7258 72.0414C57.6816 72.1477 57.6169 72.2442 57.5354 72.3255C57.4538 72.4068 57.3571 72.4712 57.2506 72.515C57.1442 72.5589 57.0301 72.5813 56.915 72.581C56.7999 72.5813 56.6858 72.5589 56.5794 72.515C56.4729 72.4712 56.3762 72.4068 56.2946 72.3255C56.2131 72.2442 56.1484 72.1477 56.1042 72.0414C56.06 71.9351 56.0371 71.8211 56.037 71.706C56.037 71.223 56.43 70.831 56.915 70.831C57.4 70.831 57.793 71.223 57.793 71.706ZM58.67 75.77C58.6699 75.8851 58.6471 75.9989 58.6029 76.1052C58.5588 76.2114 58.4942 76.3079 58.4127 76.3892C58.3313 76.4704 58.2346 76.5348 58.1283 76.5787C58.022 76.6226 57.908 76.6452 57.793 76.645C57.6779 76.6453 57.5638 76.6229 57.4574 76.579C57.3509 76.5352 57.2542 76.4708 57.1726 76.3895C57.0911 76.3082 57.0264 76.2117 56.9822 76.1054C56.938 75.9991 56.9151 75.8851 56.915 75.77C56.915 75.287 57.308 74.895 57.793 74.895C58.278 74.895 58.671 75.287 58.671 75.77" fill="#1D1919"/>
</svg>
