<svg width="78" height="120" viewBox="0 0 78 120" fill="none" xmlns="http://www.w3.org/2000/svg">
<path d="M49.546 84.387L46.028 75.468L42.353 70.212C42.353 70.212 43.13 67.982 44.272 67.982H47.946L51.465 69.259L51.147 75.151L49.547 84.387" fill="white"/>
<path d="M30.686 60.317L26.258 59.837L22.071 58.567V60L24.099 62.23L30.492 65.094" fill="white"/>
<path d="M37.126 16.94C32.768 15.925 30.601 18.759 29.28 21.693C28.1 21.406 28.573 19.812 28.868 18.999C29.645 16.862 32.752 14.013 35.354 14.4C36.458 14.563 37.957 15.569 37.118 16.947L37.126 16.94ZM58.355 21.886H58.58C59.4636 23.9613 60.5026 25.967 61.688 27.886C60.856 29.814 55.388 31.526 55.473 28.056C56.653 27.538 58.697 27.948 59.746 27.283C59.14 25.626 58.262 24.186 58.402 21.863L58.355 21.886ZM39.355 21.94C40.287 23.644 40.59 25.44 41.918 26.733C42.516 27.313 43.682 28.018 43.099 29.636C42.6906 30.2602 42.1028 30.7462 41.413 31.03C39.339 31.641 34.5 31.154 36.139 28.575C37.856 28.653 40.163 29.69 41.444 28.444C40.458 26.895 38.702 23.799 39.347 21.941L39.355 21.94ZM57.57 39.283C54.463 41.28 50.96 43.463 45.841 42.953C45.2495 42.3853 44.8794 41.6255 44.797 40.8098C44.7145 39.9941 44.9251 39.1756 45.391 38.501C45.942 39.445 45.593 41.195 47.138 41.458C50.043 41.954 53.423 39.685 55.52 38.895C56.817 36.72 55.411 35.915 54.238 34.514C51.846 31.641 48.638 28.08 48.754 23.784C49.717 23.086 49.803 24.852 49.943 25.169C51.193 28.08 54.331 31.804 56.623 34.297C57.183 34.908 58.114 35.497 58.215 35.907C58.51 37.084 57.438 38.501 57.563 39.283H57.57ZM16.37 37.161C15.391 36.604 15.158 34.15 14.04 34.065C12.393 33.964 12.696 37.246 12.703 39.166C11.569 38.145 11.375 34.994 12.206 33.376C11.259 32.911 10.839 33.886 10.311 34.227C10.987 29.342 17.488 31.959 16.409 37.146L16.37 37.161ZM59.56 41.319C58.107 44.075 56.048 47.117 51.791 47.21C51.6668 46.2852 51.6668 45.3479 51.791 44.423C55.054 44.113 57.073 42.457 59.559 41.326L59.56 41.319ZM39.106 43.107C41.833 44.532 46.836 44.655 50.533 44.578C50.702 45.5 50.769 46.437 50.735 47.373C45.981 47.613 40.349 46.436 39.083 43.107H39.106ZM38.594 45.77C40.474 50.485 46.952 49.943 52.404 49.812C52.1532 50.5011 51.6519 51.0703 51 51.406C49.252 52.119 44.428 52.653 41.997 51.406C40.443 50.594 39.465 48.751 38.626 47.667C38.222 47.148 36.186 45.809 38.626 45.809" fill="white"/>
<path d="M69.238 85.316C66.768 85.812 65.028 88.204 62.612 88.049C63.94 86.183 66.262 85.401 69.238 85.316ZM70.325 89.172C68.1965 89.4856 66.0444 89.6098 63.894 89.543C64.864 88.073 68.554 88.575 70.325 89.172ZM71.009 92.5C68.741 92.547 65.929 92.5 63.769 92.323C65.043 90.96 69.533 91.819 71.009 92.501" fill="white"/>
<mask id="path-5-outside-1" maskUnits="userSpaceOnUse" x="-0.678599" y="-0.762634" width="78" height="121" fill="black">
<rect fill="white" x="-0.678599" y="-0.762634" width="78" height="121"/>
<path d="M50.377 102.015C50.269 104.532 50.627 108.565 50.743 111.205C51.9995 111.196 53.2412 110.933 54.393 110.431C54.533 107.334 53.407 104.454 53.081 101.613C52.421 101.419 51.201 102.07 50.377 102.015ZM24.24 87.701C25.1222 97.0953 27.0155 106.367 29.887 115.355C36.412 117.329 44.281 117.499 50.083 115.719C49.027 110.648 49.485 104.477 48.872 99.066C48.405 95.001 48.646 90.906 48.002 86.764C40.979 85.316 31.099 86.424 24.24 87.701ZM49.625 86.826C49.563 91.185 49.819 95.481 50.153 99.84C51.831 99.592 52.973 99.422 54.527 99.066C54.022 94.87 54.084 90.139 53.051 86.431C51.8923 86.3708 50.7317 86.5043 49.617 86.826H49.625ZM58.17 86.121C57.3443 86.0225 56.5097 86.0225 55.684 86.121C56.041 89.675 56.911 93.592 57.238 97.316C58.434 97.316 59.071 96.79 60.058 96.604C60.112 93.329 59.77 88.862 58.193 86.114L58.17 86.121ZM71.01 97.866C73.503 97.262 75.073 94.212 74.373 91.084C73.907 88.978 73.068 85.022 72.175 83.674C71.515 82.676 69.728 81.352 68.291 82.289C65.961 83.775 61.875 84.201 60.181 85.997C61.028 88.815 61.292 92.687 61.641 96.263C64.547 96.441 68.121 95.489 70.528 96.503C68.843 97.045 66.644 97.053 65.2 97.843C66.388 98.415 69.177 98.299 70.994 97.843L71.01 97.866ZM47.8 82.738C46.044 78.628 44.452 74.369 41.834 71.063C39.317 72.774 36.521 74.323 35.814 77.419C39.612 79.6175 43.6355 81.401 47.815 82.739H47.8V82.738ZM52.119 70.01C51.955 74.121 51.482 79.51 50.386 82.73C53.004 79.401 55.125 75.53 57.331 71.76C56.406 70.25 54.433 68.903 52.134 70.01H52.118H52.119ZM47.217 68.276C46.223 68.168 45.384 69.414 44.11 68.872C43.815 69.197 43.543 69.554 43.24 69.871C46.09 73.293 47.388 78.155 49.594 82.181C50.774 78.31 50.643 74.075 50.899 69.855C49.259 69.964 48.374 68.392 47.24 68.276H47.217ZM44.063 64.134C43.954 65.311 44.234 65.683 44.467 67.037C48.359 68.237 47.707 61.742 44.087 64.134H44.063ZM39.799 62.71C37.8116 61.641 35.6828 60.8589 33.476 60.387C30.804 59.877 31.06 64.018 31.146 66.487C31.231 68.439 32.256 70.506 32.699 71.807C32.909 72.41 32.955 73.053 33.476 73.177C34.392 73.394 37.429 72.178 38.292 71.714C40.117 70.723 41.539 69.144 43.092 68.083C43.092 67.566 43.113 67.05 43.154 66.534C42.1018 66.0111 40.9494 65.7209 39.775 65.683C40.708 65.218 42.105 65.226 42.883 64.668V64.049C41.407 63.972 40.816 63.283 39.799 62.709V62.71ZM23.875 59.83C22.492 61.231 27.758 63.135 29.429 63.244C29.429 62.361 29.934 61.525 29.833 60.921C27.836 60.55 25.226 60.781 23.867 59.845L23.875 59.83ZM40.925 60.488C40.925 60.628 40.739 60.573 40.708 60.689C42.486 62.075 43.815 62.361 46.23 62.237C47.326 61.463 48.289 60.527 49.43 59.783C46.813 60.031 43.512 61.657 40.917 60.503L40.925 60.488ZM56.569 65.218C56.492 63.67 56.088 60.465 55.117 59.908C53.089 58.73 49.493 62.284 47.97 62.826C48.207 63.283 48.362 63.778 48.429 64.289C49.3646 64.085 50.3413 64.194 51.209 64.599C50.309 64.699 49.307 64.692 48.709 65.125C48.491 65.76 48.763 66.619 48.615 67.495C51.002 68.125 53.456 68.462 55.925 68.501C56.475 67.505 56.698 66.362 56.562 65.234L56.569 65.218ZM21.544 61.161C21.109 60.851 18.173 57.043 17.769 57.197C12.449 59.287 7.477 62.903 3.01 66.325C7.251 75.391 8.96 86.455 9.224 97.192C14.079 99.452 18.344 102.72 24.931 103.061C24.154 97.688 23.471 92.888 23.043 87.825C21.389 87.128 19.012 87.825 17.466 87.608C17.466 85.75 19.796 86.795 20.029 85.541C20.177 84.596 18.724 84.526 19.199 83.032C20.41 83.474 21.047 84.442 22.305 84.805C23.486 82.235 22.305 77.683 22.461 75.515C22.461 75.112 22.663 73.277 23.571 73.603C24.481 73.928 23.525 78.48 23.611 80.516C23.688 82.39 23.385 84.209 24.146 85.386C30.686 84.493 37.27 83.956 43.869 83.776C42.0593 83.0938 40.2928 82.3023 38.579 81.406C37.507 80.803 34.136 79.556 33.825 78.542C33.335 76.932 35.115 76.072 35.425 74.671C32.209 76.421 31.588 72.999 30.827 70.575C30.2702 68.9121 29.8521 67.2059 29.577 65.474C26.7582 64.2558 24.0456 62.8055 21.467 61.138L21.544 61.161ZM53.758 57.661C58.193 55.517 58.985 65.667 57.253 68.934C57.525 69.91 58.442 70.281 58.807 71.156C56.337 75.569 53.587 79.672 51.039 84.054C52.919 82.893 55.599 83.845 57.805 82.97C58.581 82.653 59.195 80.81 59.809 79.34C61.5958 75.1251 63.0121 70.7626 64.042 66.302C64.358 65.131 64.542 63.929 64.594 62.717C64.399 61.317 62.489 60.271 61.487 59.404C59.692 57.801 58.566 56.384 56.694 54.883C55.917 55.997 54.309 56.748 53.688 57.654L53.758 57.662V57.661ZM11.408 18.488C9.294 20.81 9.738 25.146 9.993 28.228C13.807 25.835 18.88 28.413 18.833 32.485C20.659 32.439 19.517 30.217 19.183 28.785C18.103 24.139 21 19.037 19.315 14.764C16.2954 14.9244 13.4578 16.2578 11.407 18.48V18.488H11.408ZM26.516 5.04801C21.738 6.39501 15.641 9.86301 13.644 14.145C15.198 13.928 16.224 13.161 17.722 13.068C18.373 13.158 19.032 13.184 19.688 13.146C20.985 12.828 22.08 9.92601 23.067 8.84101C24.053 7.75701 25.172 7.33901 25.957 6.37101C26.461 6.13101 27.207 6.14701 27.238 5.38801C27.005 5.18801 26.78 5.00901 26.516 5.07801V5.04801ZM51.373 6.31801C46.409 3.53001 38.013 1.42501 32.73 4.04901C28.473 6.16301 22.71 9.66901 20.752 14.114C22.585 18.394 20.208 22.32 20.061 26.671C19.983 28.994 21.156 31.006 21.241 33.523C20.612 34.553 18.693 34.683 17.357 34.614C16.907 32.384 16.13 29.884 13.823 29.628C13.1007 29.5678 12.3736 29.6547 11.6859 29.8837C10.9982 30.1126 10.3641 30.4788 9.822 30.96C9.28099 31.4401 8.84358 32.0256 8.5365 32.6805C8.22942 33.3354 8.05911 34.046 8.036 34.769C7.857 38.067 10.584 43.541 14.436 43.161C15.928 43.014 16.293 41.528 17.916 41.543C18.794 43.293 16.557 43.866 16.363 45.089C16.392 45.824 16.501 46.553 16.689 47.265C17.4755 50.4007 18.7693 53.3867 20.519 56.105C22.469 58.893 26.299 59.311 30.423 59.582C31.161 58.034 33.872 58.134 35.635 58.545C33.515 57.708 31.549 55.68 29.918 53.899C28.046 51.84 26.143 49.634 26.034 46.932C29.576 51.825 32.504 56.106 38.944 58.258C43.814 59.884 49.509 57.484 53.253 54.89C54.806 53.799 55.731 52.072 56.841 50.493C60.974 44.57 62.901 36.116 62.481 27.917C62.31 24.534 62.318 21.167 61.176 18.898C60.034 16.63 55.964 14.392 53.61 16.575C53.175 14.253 55.567 12.836 58.38 13.665C56.375 11.086 54.27 7.99001 51.388 6.37901L51.373 6.31701V6.31801ZM60.617 82.575C64.5 80.655 71.74 77.404 74.171 82.575C75.1782 84.8709 75.9865 87.2489 76.587 89.683C77.247 92.462 75.873 98.307 73.007 99.236C70.2186 100.014 67.2781 100.07 64.462 99.399C64.0342 99.0156 63.6813 98.5561 63.421 98.044C61.389 97.8611 59.3442 98.2077 57.486 99.05C57.649 100.653 56.562 100.916 55.536 101.241C54.76 104.23 57.09 108.139 56.507 110.872C56.119 112.815 53.719 113.117 51.955 113.482C51.925 114.45 51.991 115.42 52.15 116.377C51.746 117.855 49.936 118.699 48.227 118.908C42.587 119.582 34.027 119.884 28.605 117.941C27.09 114.24 25.902 109.741 24.635 105.554C19.345 106.119 15.065 103.277 11.035 101.419C9.636 100.777 7.71 100.421 7.15 99.314C6.591 98.206 6.855 96.217 6.723 94.243C6.405 89.28 6.133 84.503 4.82 79.425C4.23 77.148 3.204 75.135 2.49 72.937C1.83 70.901 0.672001 68.385 0.369001 66.357C-0.0809992 63.352 2.762 63.182 4.579 61.881C7.391 59.868 9.589 58.785 12.634 56.934C13.536 56.392 16.254 55.03 16.565 54.403C17.179 53.156 15.509 51.399 15.065 50.423C14.3987 49.0532 14.0008 47.5685 13.893 46.049C12.7533 45.8622 11.6638 45.4444 10.6914 44.8214C9.71896 44.1984 8.88409 43.3833 8.238 42.426C6.304 39.6 4.968 34.374 6.638 30.403C6.77 30.093 7.414 29.473 7.523 28.993C7.717 28.049 7.166 26.787 7.135 25.781C6.956 20.617 8.013 16.165 11.5 14.609C12.914 8.98901 17.987 7.11501 22.764 4.32001C24.6166 3.33244 26.5532 2.51121 28.551 1.86601C35.844 -0.812987 47.03 -0.301987 53.08 4.25801C55.644 6.19401 59.746 10.274 61.214 13.231C65.098 21.035 64.81 34.088 62.107 43.587C61.6895 45.1768 61.144 46.7302 60.476 48.232C59.963 49.301 58.363 51.445 58.557 52.39C58.751 53.334 62.2 55.974 62.946 56.686C64.274 57.964 66.83 59.667 67.008 61.277C67.188 62.887 66.232 65.35 65.75 67.007C64.088 72.542 62.472 77.652 60.592 82.583L60.616 82.575H60.617Z"/>
</mask>
<path d="M50.377 102.015C50.269 104.532 50.627 108.565 50.743 111.205C51.9995 111.196 53.2412 110.933 54.393 110.431C54.533 107.334 53.407 104.454 53.081 101.613C52.421 101.419 51.201 102.07 50.377 102.015ZM24.24 87.701C25.1222 97.0953 27.0155 106.367 29.887 115.355C36.412 117.329 44.281 117.499 50.083 115.719C49.027 110.648 49.485 104.477 48.872 99.066C48.405 95.001 48.646 90.906 48.002 86.764C40.979 85.316 31.099 86.424 24.24 87.701ZM49.625 86.826C49.563 91.185 49.819 95.481 50.153 99.84C51.831 99.592 52.973 99.422 54.527 99.066C54.022 94.87 54.084 90.139 53.051 86.431C51.8923 86.3708 50.7317 86.5043 49.617 86.826H49.625ZM58.17 86.121C57.3443 86.0225 56.5097 86.0225 55.684 86.121C56.041 89.675 56.911 93.592 57.238 97.316C58.434 97.316 59.071 96.79 60.058 96.604C60.112 93.329 59.77 88.862 58.193 86.114L58.17 86.121ZM71.01 97.866C73.503 97.262 75.073 94.212 74.373 91.084C73.907 88.978 73.068 85.022 72.175 83.674C71.515 82.676 69.728 81.352 68.291 82.289C65.961 83.775 61.875 84.201 60.181 85.997C61.028 88.815 61.292 92.687 61.641 96.263C64.547 96.441 68.121 95.489 70.528 96.503C68.843 97.045 66.644 97.053 65.2 97.843C66.388 98.415 69.177 98.299 70.994 97.843L71.01 97.866ZM47.8 82.738C46.044 78.628 44.452 74.369 41.834 71.063C39.317 72.774 36.521 74.323 35.814 77.419C39.612 79.6175 43.6355 81.401 47.815 82.739H47.8V82.738ZM52.119 70.01C51.955 74.121 51.482 79.51 50.386 82.73C53.004 79.401 55.125 75.53 57.331 71.76C56.406 70.25 54.433 68.903 52.134 70.01H52.118H52.119ZM47.217 68.276C46.223 68.168 45.384 69.414 44.11 68.872C43.815 69.197 43.543 69.554 43.24 69.871C46.09 73.293 47.388 78.155 49.594 82.181C50.774 78.31 50.643 74.075 50.899 69.855C49.259 69.964 48.374 68.392 47.24 68.276H47.217ZM44.063 64.134C43.954 65.311 44.234 65.683 44.467 67.037C48.359 68.237 47.707 61.742 44.087 64.134H44.063ZM39.799 62.71C37.8116 61.641 35.6828 60.8589 33.476 60.387C30.804 59.877 31.06 64.018 31.146 66.487C31.231 68.439 32.256 70.506 32.699 71.807C32.909 72.41 32.955 73.053 33.476 73.177C34.392 73.394 37.429 72.178 38.292 71.714C40.117 70.723 41.539 69.144 43.092 68.083C43.092 67.566 43.113 67.05 43.154 66.534C42.1018 66.0111 40.9494 65.7209 39.775 65.683C40.708 65.218 42.105 65.226 42.883 64.668V64.049C41.407 63.972 40.816 63.283 39.799 62.709V62.71ZM23.875 59.83C22.492 61.231 27.758 63.135 29.429 63.244C29.429 62.361 29.934 61.525 29.833 60.921C27.836 60.55 25.226 60.781 23.867 59.845L23.875 59.83ZM40.925 60.488C40.925 60.628 40.739 60.573 40.708 60.689C42.486 62.075 43.815 62.361 46.23 62.237C47.326 61.463 48.289 60.527 49.43 59.783C46.813 60.031 43.512 61.657 40.917 60.503L40.925 60.488ZM56.569 65.218C56.492 63.67 56.088 60.465 55.117 59.908C53.089 58.73 49.493 62.284 47.97 62.826C48.207 63.283 48.362 63.778 48.429 64.289C49.3646 64.085 50.3413 64.194 51.209 64.599C50.309 64.699 49.307 64.692 48.709 65.125C48.491 65.76 48.763 66.619 48.615 67.495C51.002 68.125 53.456 68.462 55.925 68.501C56.475 67.505 56.698 66.362 56.562 65.234L56.569 65.218ZM21.544 61.161C21.109 60.851 18.173 57.043 17.769 57.197C12.449 59.287 7.477 62.903 3.01 66.325C7.251 75.391 8.96 86.455 9.224 97.192C14.079 99.452 18.344 102.72 24.931 103.061C24.154 97.688 23.471 92.888 23.043 87.825C21.389 87.128 19.012 87.825 17.466 87.608C17.466 85.75 19.796 86.795 20.029 85.541C20.177 84.596 18.724 84.526 19.199 83.032C20.41 83.474 21.047 84.442 22.305 84.805C23.486 82.235 22.305 77.683 22.461 75.515C22.461 75.112 22.663 73.277 23.571 73.603C24.481 73.928 23.525 78.48 23.611 80.516C23.688 82.39 23.385 84.209 24.146 85.386C30.686 84.493 37.27 83.956 43.869 83.776C42.0593 83.0938 40.2928 82.3023 38.579 81.406C37.507 80.803 34.136 79.556 33.825 78.542C33.335 76.932 35.115 76.072 35.425 74.671C32.209 76.421 31.588 72.999 30.827 70.575C30.2702 68.9121 29.8521 67.2059 29.577 65.474C26.7582 64.2558 24.0456 62.8055 21.467 61.138L21.544 61.161ZM53.758 57.661C58.193 55.517 58.985 65.667 57.253 68.934C57.525 69.91 58.442 70.281 58.807 71.156C56.337 75.569 53.587 79.672 51.039 84.054C52.919 82.893 55.599 83.845 57.805 82.97C58.581 82.653 59.195 80.81 59.809 79.34C61.5958 75.1251 63.0121 70.7626 64.042 66.302C64.358 65.131 64.542 63.929 64.594 62.717C64.399 61.317 62.489 60.271 61.487 59.404C59.692 57.801 58.566 56.384 56.694 54.883C55.917 55.997 54.309 56.748 53.688 57.654L53.758 57.662V57.661ZM11.408 18.488C9.294 20.81 9.738 25.146 9.993 28.228C13.807 25.835 18.88 28.413 18.833 32.485C20.659 32.439 19.517 30.217 19.183 28.785C18.103 24.139 21 19.037 19.315 14.764C16.2954 14.9244 13.4578 16.2578 11.407 18.48V18.488H11.408ZM26.516 5.04801C21.738 6.39501 15.641 9.86301 13.644 14.145C15.198 13.928 16.224 13.161 17.722 13.068C18.373 13.158 19.032 13.184 19.688 13.146C20.985 12.828 22.08 9.92601 23.067 8.84101C24.053 7.75701 25.172 7.33901 25.957 6.37101C26.461 6.13101 27.207 6.14701 27.238 5.38801C27.005 5.18801 26.78 5.00901 26.516 5.07801V5.04801ZM51.373 6.31801C46.409 3.53001 38.013 1.42501 32.73 4.04901C28.473 6.16301 22.71 9.66901 20.752 14.114C22.585 18.394 20.208 22.32 20.061 26.671C19.983 28.994 21.156 31.006 21.241 33.523C20.612 34.553 18.693 34.683 17.357 34.614C16.907 32.384 16.13 29.884 13.823 29.628C13.1007 29.5678 12.3736 29.6547 11.6859 29.8837C10.9982 30.1126 10.3641 30.4788 9.822 30.96C9.28099 31.4401 8.84358 32.0256 8.5365 32.6805C8.22942 33.3354 8.05911 34.046 8.036 34.769C7.857 38.067 10.584 43.541 14.436 43.161C15.928 43.014 16.293 41.528 17.916 41.543C18.794 43.293 16.557 43.866 16.363 45.089C16.392 45.824 16.501 46.553 16.689 47.265C17.4755 50.4007 18.7693 53.3867 20.519 56.105C22.469 58.893 26.299 59.311 30.423 59.582C31.161 58.034 33.872 58.134 35.635 58.545C33.515 57.708 31.549 55.68 29.918 53.899C28.046 51.84 26.143 49.634 26.034 46.932C29.576 51.825 32.504 56.106 38.944 58.258C43.814 59.884 49.509 57.484 53.253 54.89C54.806 53.799 55.731 52.072 56.841 50.493C60.974 44.57 62.901 36.116 62.481 27.917C62.31 24.534 62.318 21.167 61.176 18.898C60.034 16.63 55.964 14.392 53.61 16.575C53.175 14.253 55.567 12.836 58.38 13.665C56.375 11.086 54.27 7.99001 51.388 6.37901L51.373 6.31701V6.31801ZM60.617 82.575C64.5 80.655 71.74 77.404 74.171 82.575C75.1782 84.8709 75.9865 87.2489 76.587 89.683C77.247 92.462 75.873 98.307 73.007 99.236C70.2186 100.014 67.2781 100.07 64.462 99.399C64.0342 99.0156 63.6813 98.5561 63.421 98.044C61.389 97.8611 59.3442 98.2077 57.486 99.05C57.649 100.653 56.562 100.916 55.536 101.241C54.76 104.23 57.09 108.139 56.507 110.872C56.119 112.815 53.719 113.117 51.955 113.482C51.925 114.45 51.991 115.42 52.15 116.377C51.746 117.855 49.936 118.699 48.227 118.908C42.587 119.582 34.027 119.884 28.605 117.941C27.09 114.24 25.902 109.741 24.635 105.554C19.345 106.119 15.065 103.277 11.035 101.419C9.636 100.777 7.71 100.421 7.15 99.314C6.591 98.206 6.855 96.217 6.723 94.243C6.405 89.28 6.133 84.503 4.82 79.425C4.23 77.148 3.204 75.135 2.49 72.937C1.83 70.901 0.672001 68.385 0.369001 66.357C-0.0809992 63.352 2.762 63.182 4.579 61.881C7.391 59.868 9.589 58.785 12.634 56.934C13.536 56.392 16.254 55.03 16.565 54.403C17.179 53.156 15.509 51.399 15.065 50.423C14.3987 49.0532 14.0008 47.5685 13.893 46.049C12.7533 45.8622 11.6638 45.4444 10.6914 44.8214C9.71896 44.1984 8.88409 43.3833 8.238 42.426C6.304 39.6 4.968 34.374 6.638 30.403C6.77 30.093 7.414 29.473 7.523 28.993C7.717 28.049 7.166 26.787 7.135 25.781C6.956 20.617 8.013 16.165 11.5 14.609C12.914 8.98901 17.987 7.11501 22.764 4.32001C24.6166 3.33244 26.5532 2.51121 28.551 1.86601C35.844 -0.812987 47.03 -0.301987 53.08 4.25801C55.644 6.19401 59.746 10.274 61.214 13.231C65.098 21.035 64.81 34.088 62.107 43.587C61.6895 45.1768 61.144 46.7302 60.476 48.232C59.963 49.301 58.363 51.445 58.557 52.39C58.751 53.334 62.2 55.974 62.946 56.686C64.274 57.964 66.83 59.667 67.008 61.277C67.188 62.887 66.232 65.35 65.75 67.007C64.088 72.542 62.472 77.652 60.592 82.583L60.616 82.575H60.617Z" fill="white"/>
<path d="M50.377 102.015C50.269 104.532 50.627 108.565 50.743 111.205C51.9995 111.196 53.2412 110.933 54.393 110.431C54.533 107.334 53.407 104.454 53.081 101.613C52.421 101.419 51.201 102.07 50.377 102.015ZM24.24 87.701C25.1222 97.0953 27.0155 106.367 29.887 115.355C36.412 117.329 44.281 117.499 50.083 115.719C49.027 110.648 49.485 104.477 48.872 99.066C48.405 95.001 48.646 90.906 48.002 86.764C40.979 85.316 31.099 86.424 24.24 87.701ZM49.625 86.826C49.563 91.185 49.819 95.481 50.153 99.84C51.831 99.592 52.973 99.422 54.527 99.066C54.022 94.87 54.084 90.139 53.051 86.431C51.8923 86.3708 50.7317 86.5043 49.617 86.826H49.625ZM58.17 86.121C57.3443 86.0225 56.5097 86.0225 55.684 86.121C56.041 89.675 56.911 93.592 57.238 97.316C58.434 97.316 59.071 96.79 60.058 96.604C60.112 93.329 59.77 88.862 58.193 86.114L58.17 86.121ZM71.01 97.866C73.503 97.262 75.073 94.212 74.373 91.084C73.907 88.978 73.068 85.022 72.175 83.674C71.515 82.676 69.728 81.352 68.291 82.289C65.961 83.775 61.875 84.201 60.181 85.997C61.028 88.815 61.292 92.687 61.641 96.263C64.547 96.441 68.121 95.489 70.528 96.503C68.843 97.045 66.644 97.053 65.2 97.843C66.388 98.415 69.177 98.299 70.994 97.843L71.01 97.866ZM47.8 82.738C46.044 78.628 44.452 74.369 41.834 71.063C39.317 72.774 36.521 74.323 35.814 77.419C39.612 79.6175 43.6355 81.401 47.815 82.739H47.8V82.738ZM52.119 70.01C51.955 74.121 51.482 79.51 50.386 82.73C53.004 79.401 55.125 75.53 57.331 71.76C56.406 70.25 54.433 68.903 52.134 70.01H52.118H52.119ZM47.217 68.276C46.223 68.168 45.384 69.414 44.11 68.872C43.815 69.197 43.543 69.554 43.24 69.871C46.09 73.293 47.388 78.155 49.594 82.181C50.774 78.31 50.643 74.075 50.899 69.855C49.259 69.964 48.374 68.392 47.24 68.276H47.217ZM44.063 64.134C43.954 65.311 44.234 65.683 44.467 67.037C48.359 68.237 47.707 61.742 44.087 64.134H44.063ZM39.799 62.71C37.8116 61.641 35.6828 60.8589 33.476 60.387C30.804 59.877 31.06 64.018 31.146 66.487C31.231 68.439 32.256 70.506 32.699 71.807C32.909 72.41 32.955 73.053 33.476 73.177C34.392 73.394 37.429 72.178 38.292 71.714C40.117 70.723 41.539 69.144 43.092 68.083C43.092 67.566 43.113 67.05 43.154 66.534C42.1018 66.0111 40.9494 65.7209 39.775 65.683C40.708 65.218 42.105 65.226 42.883 64.668V64.049C41.407 63.972 40.816 63.283 39.799 62.709V62.71ZM23.875 59.83C22.492 61.231 27.758 63.135 29.429 63.244C29.429 62.361 29.934 61.525 29.833 60.921C27.836 60.55 25.226 60.781 23.867 59.845L23.875 59.83ZM40.925 60.488C40.925 60.628 40.739 60.573 40.708 60.689C42.486 62.075 43.815 62.361 46.23 62.237C47.326 61.463 48.289 60.527 49.43 59.783C46.813 60.031 43.512 61.657 40.917 60.503L40.925 60.488ZM56.569 65.218C56.492 63.67 56.088 60.465 55.117 59.908C53.089 58.73 49.493 62.284 47.97 62.826C48.207 63.283 48.362 63.778 48.429 64.289C49.3646 64.085 50.3413 64.194 51.209 64.599C50.309 64.699 49.307 64.692 48.709 65.125C48.491 65.76 48.763 66.619 48.615 67.495C51.002 68.125 53.456 68.462 55.925 68.501C56.475 67.505 56.698 66.362 56.562 65.234L56.569 65.218ZM21.544 61.161C21.109 60.851 18.173 57.043 17.769 57.197C12.449 59.287 7.477 62.903 3.01 66.325C7.251 75.391 8.96 86.455 9.224 97.192C14.079 99.452 18.344 102.72 24.931 103.061C24.154 97.688 23.471 92.888 23.043 87.825C21.389 87.128 19.012 87.825 17.466 87.608C17.466 85.75 19.796 86.795 20.029 85.541C20.177 84.596 18.724 84.526 19.199 83.032C20.41 83.474 21.047 84.442 22.305 84.805C23.486 82.235 22.305 77.683 22.461 75.515C22.461 75.112 22.663 73.277 23.571 73.603C24.481 73.928 23.525 78.48 23.611 80.516C23.688 82.39 23.385 84.209 24.146 85.386C30.686 84.493 37.27 83.956 43.869 83.776C42.0593 83.0938 40.2928 82.3023 38.579 81.406C37.507 80.803 34.136 79.556 33.825 78.542C33.335 76.932 35.115 76.072 35.425 74.671C32.209 76.421 31.588 72.999 30.827 70.575C30.2702 68.9121 29.8521 67.2059 29.577 65.474C26.7582 64.2558 24.0456 62.8055 21.467 61.138L21.544 61.161ZM53.758 57.661C58.193 55.517 58.985 65.667 57.253 68.934C57.525 69.91 58.442 70.281 58.807 71.156C56.337 75.569 53.587 79.672 51.039 84.054C52.919 82.893 55.599 83.845 57.805 82.97C58.581 82.653 59.195 80.81 59.809 79.34C61.5958 75.1251 63.0121 70.7626 64.042 66.302C64.358 65.131 64.542 63.929 64.594 62.717C64.399 61.317 62.489 60.271 61.487 59.404C59.692 57.801 58.566 56.384 56.694 54.883C55.917 55.997 54.309 56.748 53.688 57.654L53.758 57.662V57.661ZM11.408 18.488C9.294 20.81 9.738 25.146 9.993 28.228C13.807 25.835 18.88 28.413 18.833 32.485C20.659 32.439 19.517 30.217 19.183 28.785C18.103 24.139 21 19.037 19.315 14.764C16.2954 14.9244 13.4578 16.2578 11.407 18.48V18.488H11.408ZM26.516 5.04801C21.738 6.39501 15.641 9.86301 13.644 14.145C15.198 13.928 16.224 13.161 17.722 13.068C18.373 13.158 19.032 13.184 19.688 13.146C20.985 12.828 22.08 9.92601 23.067 8.84101C24.053 7.75701 25.172 7.33901 25.957 6.37101C26.461 6.13101 27.207 6.14701 27.238 5.38801C27.005 5.18801 26.78 5.00901 26.516 5.07801V5.04801ZM51.373 6.31801C46.409 3.53001 38.013 1.42501 32.73 4.04901C28.473 6.16301 22.71 9.66901 20.752 14.114C22.585 18.394 20.208 22.32 20.061 26.671C19.983 28.994 21.156 31.006 21.241 33.523C20.612 34.553 18.693 34.683 17.357 34.614C16.907 32.384 16.13 29.884 13.823 29.628C13.1007 29.5678 12.3736 29.6547 11.6859 29.8837C10.9982 30.1126 10.3641 30.4788 9.822 30.96C9.28099 31.4401 8.84358 32.0256 8.5365 32.6805C8.22942 33.3354 8.05911 34.046 8.036 34.769C7.857 38.067 10.584 43.541 14.436 43.161C15.928 43.014 16.293 41.528 17.916 41.543C18.794 43.293 16.557 43.866 16.363 45.089C16.392 45.824 16.501 46.553 16.689 47.265C17.4755 50.4007 18.7693 53.3867 20.519 56.105C22.469 58.893 26.299 59.311 30.423 59.582C31.161 58.034 33.872 58.134 35.635 58.545C33.515 57.708 31.549 55.68 29.918 53.899C28.046 51.84 26.143 49.634 26.034 46.932C29.576 51.825 32.504 56.106 38.944 58.258C43.814 59.884 49.509 57.484 53.253 54.89C54.806 53.799 55.731 52.072 56.841 50.493C60.974 44.57 62.901 36.116 62.481 27.917C62.31 24.534 62.318 21.167 61.176 18.898C60.034 16.63 55.964 14.392 53.61 16.575C53.175 14.253 55.567 12.836 58.38 13.665C56.375 11.086 54.27 7.99001 51.388 6.37901L51.373 6.31701V6.31801ZM60.617 82.575C64.5 80.655 71.74 77.404 74.171 82.575C75.1782 84.8709 75.9865 87.2489 76.587 89.683C77.247 92.462 75.873 98.307 73.007 99.236C70.2186 100.014 67.2781 100.07 64.462 99.399C64.0342 99.0156 63.6813 98.5561 63.421 98.044C61.389 97.8611 59.3442 98.2077 57.486 99.05C57.649 100.653 56.562 100.916 55.536 101.241C54.76 104.23 57.09 108.139 56.507 110.872C56.119 112.815 53.719 113.117 51.955 113.482C51.925 114.45 51.991 115.42 52.15 116.377C51.746 117.855 49.936 118.699 48.227 118.908C42.587 119.582 34.027 119.884 28.605 117.941C27.09 114.24 25.902 109.741 24.635 105.554C19.345 106.119 15.065 103.277 11.035 101.419C9.636 100.777 7.71 100.421 7.15 99.314C6.591 98.206 6.855 96.217 6.723 94.243C6.405 89.28 6.133 84.503 4.82 79.425C4.23 77.148 3.204 75.135 2.49 72.937C1.83 70.901 0.672001 68.385 0.369001 66.357C-0.0809992 63.352 2.762 63.182 4.579 61.881C7.391 59.868 9.589 58.785 12.634 56.934C13.536 56.392 16.254 55.03 16.565 54.403C17.179 53.156 15.509 51.399 15.065 50.423C14.3987 49.0532 14.0008 47.5685 13.893 46.049C12.7533 45.8622 11.6638 45.4444 10.6914 44.8214C9.71896 44.1984 8.88409 43.3833 8.238 42.426C6.304 39.6 4.968 34.374 6.638 30.403C6.77 30.093 7.414 29.473 7.523 28.993C7.717 28.049 7.166 26.787 7.135 25.781C6.956 20.617 8.013 16.165 11.5 14.609C12.914 8.98901 17.987 7.11501 22.764 4.32001C24.6166 3.33244 26.5532 2.51121 28.551 1.86601C35.844 -0.812987 47.03 -0.301987 53.08 4.25801C55.644 6.19401 59.746 10.274 61.214 13.231C65.098 21.035 64.81 34.088 62.107 43.587C61.6895 45.1768 61.144 46.7302 60.476 48.232C59.963 49.301 58.363 51.445 58.557 52.39C58.751 53.334 62.2 55.974 62.946 56.686C64.274 57.964 66.83 59.667 67.008 61.277C67.188 62.887 66.232 65.35 65.75 67.007C64.088 72.542 62.472 77.652 60.592 82.583L60.616 82.575H60.617Z" stroke="white" stroke-width="0.6" mask="url(#path-5-outside-1)"/>
</svg>
