<svg width="26" height="26" viewBox="0 0 26 26" fill="none" xmlns="http://www.w3.org/2000/svg">
<mask id="path-1-inside-1" fill="white">
<path fill-rule="evenodd" clip-rule="evenodd" d="M14 1C14 1.55228 13.5523 2 13 2C12.4477 2 12 1.55228 12 1C12 0.447715 12.4477 0 13 0C13.5523 0 14 0.447715 14 1ZM21 13C21 17.4183 17.4183 21 13 21C8.58172 21 5 17.4183 5 13C5 8.58172 8.58172 5 13 5C17.4183 5 21 8.58172 21 13ZM13 26C13.5523 26 14 25.5523 14 25C14 24.4477 13.5523 24 13 24C12.4477 24 12 24.4477 12 25C12 25.5523 12.4477 26 13 26ZM26 13C26 13.5523 25.5523 14 25 14C24.4477 14 24 13.5523 24 13C24 12.4477 24.4477 12 25 12C25.5523 12 26 12.4477 26 13ZM1 14C1.55228 14 2 13.5523 2 13C2 12.4477 1.55228 12 1 12C0.447715 12 0 12.4477 0 13C0 13.5523 0.447715 14 1 14ZM5 4C5 4.55228 4.55228 5 4 5C3.44772 5 3 4.55228 3 4C3 3.44772 3.44772 3 4 3C4.55228 3 5 3.44772 5 4ZM22 5C22.5523 5 23 4.55228 23 4C23 3.44772 22.5523 3 22 3C21.4477 3 21 3.44772 21 4C21 4.55228 21.4477 5 22 5ZM23 22C23 22.5523 22.5523 23 22 23C21.4477 23 21 22.5523 21 22C21 21.4477 21.4477 21 22 21C22.5523 21 23 21.4477 23 22ZM4 23C4.55228 23 5 22.5523 5 22C5 21.4477 4.55228 21 4 21C3.44772 21 3 21.4477 3 22C3 22.5523 3.44772 23 4 23Z"/>
</mask>
<path fill-rule="evenodd" clip-rule="evenodd" d="M14 1C14 1.55228 13.5523 2 13 2C12.4477 2 12 1.55228 12 1C12 0.447715 12.4477 0 13 0C13.5523 0 14 0.447715 14 1ZM21 13C21 17.4183 17.4183 21 13 21C8.58172 21 5 17.4183 5 13C5 8.58172 8.58172 5 13 5C17.4183 5 21 8.58172 21 13ZM13 26C13.5523 26 14 25.5523 14 25C14 24.4477 13.5523 24 13 24C12.4477 24 12 24.4477 12 25C12 25.5523 12.4477 26 13 26ZM26 13C26 13.5523 25.5523 14 25 14C24.4477 14 24 13.5523 24 13C24 12.4477 24.4477 12 25 12C25.5523 12 26 12.4477 26 13ZM1 14C1.55228 14 2 13.5523 2 13C2 12.4477 1.55228 12 1 12C0.447715 12 0 12.4477 0 13C0 13.5523 0.447715 14 1 14ZM5 4C5 4.55228 4.55228 5 4 5C3.44772 5 3 4.55228 3 4C3 3.44772 3.44772 3 4 3C4.55228 3 5 3.44772 5 4ZM22 5C22.5523 5 23 4.55228 23 4C23 3.44772 22.5523 3 22 3C21.4477 3 21 3.44772 21 4C21 4.55228 21.4477 5 22 5ZM23 22C23 22.5523 22.5523 23 22 23C21.4477 23 21 22.5523 21 22C21 21.4477 21.4477 21 22 21C22.5523 21 23 21.4477 23 22ZM4 23C4.55228 23 5 22.5523 5 22C5 21.4477 4.55228 21 4 21C3.44772 21 3 21.4477 3 22C3 22.5523 3.44772 23 4 23Z" fill="url(#paint0_linear)"/>
<path d="M13 3C14.1046 3 15 2.10457 15 1H13V3ZM11 1C11 2.10457 11.8954 3 13 3V1H11ZM13 -1C11.8954 -1 11 -0.104569 11 1H13V-1ZM15 1C15 -0.10457 14.1046 -1 13 -1V1H15ZM13 22C17.9706 22 22 17.9706 22 13H20C20 16.866 16.866 20 13 20V22ZM4 13C4 17.9706 8.02944 22 13 22V20C9.13401 20 6 16.866 6 13H4ZM13 4C8.02944 4 4 8.02944 4 13H6C6 9.13401 9.13401 6 13 6V4ZM22 13C22 8.02944 17.9706 4 13 4V6C16.866 6 20 9.13401 20 13H22ZM13 25V27C14.1046 27 15 26.1046 15 25H13ZM13 25H15C15 23.8954 14.1046 23 13 23V25ZM13 25V23C11.8954 23 11 23.8954 11 25H13ZM13 25H11C11 26.1046 11.8954 27 13 27V25ZM25 15C26.1046 15 27 14.1046 27 13H25V15ZM23 13C23 14.1046 23.8954 15 25 15V13H23ZM25 11C23.8954 11 23 11.8954 23 13H25V11ZM27 13C27 11.8954 26.1046 11 25 11V13H27ZM1 13V15C2.10457 15 3 14.1046 3 13H1ZM1 13H3C3 11.8954 2.10457 11 1 11V13ZM1 13V11C-0.104569 11 -1 11.8954 -1 13H1ZM1 13H-1C-1 14.1046 -0.10457 15 1 15V13ZM4 6C5.10457 6 6 5.10457 6 4H4V6ZM2 4C2 5.10457 2.89543 6 4 6V4H2ZM4 2C2.89543 2 2 2.89543 2 4H4V2ZM6 4C6 2.89543 5.10457 2 4 2V4H6ZM22 4V6C23.1046 6 24 5.10457 24 4H22ZM22 4H24C24 2.89543 23.1046 2 22 2V4ZM22 4V2C20.8954 2 20 2.89543 20 4H22ZM22 4H20C20 5.10457 20.8954 6 22 6V4ZM22 24C23.1046 24 24 23.1046 24 22H22V24ZM20 22C20 23.1046 20.8954 24 22 24V22H20ZM22 20C20.8954 20 20 20.8954 20 22H22V20ZM24 22C24 20.8954 23.1046 20 22 20V22H24ZM4 22V24C5.10457 24 6 23.1046 6 22H4ZM4 22H6C6 20.8954 5.10457 20 4 20V22ZM4 22V20C2.89543 20 2 20.8954 2 22H4ZM4 22H2C2 23.1046 2.89543 24 4 24V22Z" fill="black" fill-opacity="0.3" style="mix-blend-mode:overlay" mask="url(#path-1-inside-1)"/>
<defs>
<linearGradient id="paint0_linear" x1="13" y1="0" x2="13" y2="26" gradientUnits="userSpaceOnUse">
<stop stop-color="#FFF84B"/>
<stop offset="1" stop-color="#F6B21B"/>
</linearGradient>
</defs>
</svg>
